<?xml version="1.0" encoding="UTF-8"?>
<svg width="9px" height="13px" viewBox="0 0 9 13" version="1.1" xmlns="http://www.w3.org/2000/svg" xmlns:xlink="http://www.w3.org/1999/xlink">
    <!-- Generator: Sketch 49.1 (51147) - http://www.bohemiancoding.com/sketch -->
    <title>Fill 1</title>
    <desc>Created with Sketch.</desc>
    <defs></defs>
    <g id="10books" stroke="none" stroke-width="1" fill="none" fill-rule="evenodd">
        <g id="Orders---admin" transform="translate(-1554.000000, -418.000000)" fill="#86899E">
            <g id="Group-34" transform="translate(1463.000000, 411.000000)">
                <g id="Group-31-Copy-2" transform="translate(95.500000, 13.500000) rotate(180.000000) translate(-95.500000, -13.500000) translate(83.000000, 1.000000)">
                    <path d="M16.9141695,13.846875 C16.8237673,13.6604167 16.6251406,13.5416667 16.4063548,13.5416667 L14.1742022,13.5416667 L14.1742022,6.77083333 C14.1742022,6.48333333 13.9242012,6.25 13.6161641,6.25 L11.3840115,6.25 C11.0759745,6.25 10.8259734,6.48333333 10.8259734,6.77083333 L10.8259734,13.5416667 L8.59382085,13.5416667 C8.3750699,13.5416667 8.1764432,13.6614583 8.08600614,13.846875 C7.99448789,14.0333333 8.03020233,14.2510417 8.17417617,14.4052083 L12.0804431,18.571875 C12.1864704,18.6854167 12.3394077,18.75 12.5000878,18.75 C12.6608377,18.75 12.8137401,18.684375 12.9197674,18.571875 L16.8260344,14.4052083 C16.9711243,14.2520833 17.0046066,14.0333333 16.9141695,13.846875" id="Fill-1" transform="translate(12.500000, 12.500000) rotate(180.000000) translate(-12.500000, -12.500000) "></path>
                </g>
            </g>
        </g>
    </g>
</svg>